<svg width="30" height="30" viewBox="0 0 30 30" fill="none" xmlns="http://www.w3.org/2000/svg">
<path d="M15 9.375C15 10.5353 14.5391 11.6481 13.7186 12.4686C12.8981 13.2891 11.7853 13.75 10.625 13.75C9.46468 13.75 8.35188 13.2891 7.53141 12.4686C6.71094 11.6481 6.25 10.5353 6.25 9.375C6.25 8.21468 6.71094 7.10188 7.53141 6.28141C8.35188 5.46094 9.46468 5 10.625 5C11.7853 5 12.8981 5.46094 13.7186 6.28141C14.5391 7.10188 15 8.21468 15 9.375Z" stroke="white" stroke-width="1.5"/>
<path d="M16.875 13.75C18.0353 13.75 19.1481 13.2891 19.9686 12.4686C20.7891 11.6481 21.25 10.5353 21.25 9.375C21.25 8.21468 20.7891 7.10188 19.9686 6.28141C19.1481 5.46094 18.0353 5 16.875 5" stroke="white" stroke-width="1.5" stroke-linecap="round"/>
<path d="M16.4287 25H4.82125C3.53875 25 2.5 24.0413 2.5 22.8575C2.5 19.8988 5.09875 17.5 8.30375 17.5H12.9463C14.1889 17.4956 15.4035 17.8692 16.4287 18.5713" stroke="white" stroke-width="1.5" stroke-linecap="round" stroke-linejoin="round"/>
<path d="M23.75 17.5V25M27.5 21.25H20" stroke="white" stroke-width="1.5" stroke-linecap="round"/>
</svg>
