<svg width="30" height="30" viewBox="0 0 30 30" fill="none" xmlns="http://www.w3.org/2000/svg">
<path d="M6.42877 17.5C5.49084 15.964 4.99634 14.1984 5.00002 12.3987C5.00002 6.93125 9.47752 2.5 15 2.5C20.5225 2.5 25 6.93125 25 12.3987C25.0037 14.1984 24.5092 15.964 23.5713 17.5" stroke="white" stroke-width="1.5" stroke-linecap="round"/>
<path d="M17.5 12.5C16.7338 13.3038 15.8888 13.75 15 13.75C14.1112 13.75 13.2662 13.3038 12.5 12.5" stroke="white" stroke-width="1.5" stroke-linecap="round"/>
<path d="M18.75 23.75L18.5875 24.5587C18.4125 25.4425 18.3237 25.8837 18.125 26.2337C17.8187 26.7732 17.3228 27.1795 16.7337 27.3738C16.3525 27.5 15.9 27.5 15 27.5C14.1 27.5 13.6475 27.5 13.2662 27.375C12.6769 27.1805 12.181 26.7737 11.875 26.2337C11.6762 25.8837 11.5875 25.4425 11.4125 24.5587L11.25 23.75M9.22872 21.3725C9.11372 21.0275 9.05622 20.8537 9.06247 20.7137C9.06954 20.569 9.1184 20.4294 9.20315 20.3118C9.28789 20.1942 9.40488 20.1037 9.53997 20.0513C9.66997 20 9.85247 20 10.215 20H19.785C20.1487 20 20.33 20 20.46 20.05C20.5953 20.1026 20.7124 20.1933 20.7971 20.3111C20.8819 20.4289 20.9306 20.5688 20.9375 20.7137C20.9437 20.8537 20.8862 21.0262 20.7712 21.3725C20.5587 22.0112 20.4525 22.3313 20.2887 22.59C19.9462 23.1308 19.4093 23.5195 18.7887 23.6762C18.4912 23.75 18.1562 23.75 17.485 23.75H12.515C11.8437 23.75 11.5075 23.75 11.2112 23.675C10.5908 23.5186 10.054 23.1303 9.71122 22.59C9.54747 22.3313 9.44122 22.0112 9.22872 21.3725Z" stroke="white" stroke-width="1.5"/>
<path d="M15 19.375V13.75" stroke="white" stroke-width="1.5" stroke-linecap="round" stroke-linejoin="round"/>
</svg>
