<svg width="30" height="30" viewBox="0 0 30 30" fill="none" xmlns="http://www.w3.org/2000/svg">
<path d="M16.2501 3.75C21.1251 3.75 25.0001 7.625 25.0001 12.5C25.0001 16 23.0001 19 20.0001 20.375V26.25H11.2501V22.5H10.0001C8.62508 22.5 7.50008 21.375 7.50008 20V16.25H5.62508C5.12508 16.25 4.75008 15.625 5.12508 15.25L7.50008 12.125C7.75008 7.375 11.5001 3.75 16.2501 3.75ZM16.2501 1.25C10.5001 1.25 5.75008 5.5 5.12508 11.125L3.12508 13.75C2.37508 14.75 2.37508 16 2.87508 17C3.37508 17.875 4.12508 18.5 5.00008 18.625V20C5.00008 22.375 6.62508 24.25 8.75008 24.875V28.75H22.5001V21.875C25.6251 19.75 27.5001 16.375 27.5001 12.5C27.5001 6.25 22.5001 1.25 16.2501 1.25ZM17.5001 17.5H15.0001V16.25H17.5001V17.5ZM19.5001 11.875C19.1251 12.375 18.7501 12.875 18.1251 13.25V15H14.3751V13.25C12.6251 12.25 12.0001 9.875 13.0001 8.125C14.0001 6.375 16.3751 5.75 18.1251 6.75C19.8751 7.75 20.5001 10.125 19.5001 11.875Z" fill="white"/>
</svg>
