<svg width="19" height="22" viewBox="0 0 19 22" fill="none" xmlns="http://www.w3.org/2000/svg">
<path d="M9.46242 1.875C9.09307 1.875 8.72735 1.94775 8.38612 2.08909C8.04489 2.23043 7.73484 2.4376 7.47368 2.69876C7.21251 2.95993 7.00535 3.26997 6.86401 3.6112C6.72267 3.95243 6.64992 4.31816 6.64992 4.6875C6.64992 5.05684 6.72267 5.42257 6.86401 5.7638C7.00535 6.10503 7.21251 6.41507 7.47368 6.67624C7.73484 6.9374 8.04489 7.14457 8.38612 7.28591C8.72735 7.42725 9.09307 7.5 9.46242 7.5C10.2083 7.5 10.9237 7.20368 11.4512 6.67624C11.9786 6.14879 12.2749 5.43342 12.2749 4.6875C12.2749 3.94158 11.9786 3.22621 11.4512 2.69876C10.9237 2.17132 10.2083 1.875 9.46242 1.875ZM4.77492 4.6875C4.77492 3.4443 5.26878 2.25201 6.14785 1.37294C7.02693 0.49386 8.21922 0 9.46242 0C10.7056 0 11.8979 0.49386 12.777 1.37294C13.6561 2.25201 14.1499 3.4443 14.1499 4.6875C14.1499 5.9307 13.6561 7.12299 12.777 8.00206C11.8979 8.88114 10.7056 9.375 9.46242 9.375C8.21922 9.375 7.02693 8.88114 6.14785 8.00206C5.26878 7.12299 4.77492 5.9307 4.77492 4.6875ZM6.10492 11.9613C6.26992 12.0838 6.48242 12.2275 6.73617 12.37C7.37742 12.7325 8.31742 13.1075 9.46117 13.1075C10.6049 13.1075 11.5462 12.7325 12.1874 12.37C12.4412 12.2275 12.6537 12.0838 12.8187 11.9613C13.0537 12.0238 13.2866 12.0929 13.5174 12.1687L14.7174 12.5625C15.6174 12.8588 16.2974 13.5775 16.5399 14.4662L17.0362 18.0462C17.1299 18.7262 16.7737 19.22 16.2787 19.3375C14.9699 19.65 12.7637 20 9.46242 20C6.16117 20 3.95367 19.65 2.64492 19.3375C2.15117 19.22 1.79492 18.7262 1.88742 18.0462L2.38367 14.4662C2.50697 14.0231 2.73804 13.6173 3.05625 13.2851C3.37447 12.953 3.76995 12.7047 4.20742 12.5625L5.40742 12.1687C5.63742 12.0938 5.86992 12.0246 6.10492 11.9613ZM6.99242 10.2675L6.62867 9.90875L6.12617 10.0238C5.68783 10.1237 5.25283 10.245 4.82117 10.3875L3.62117 10.7812C2.87569 11.0236 2.20357 11.4504 1.66727 12.0221C1.13097 12.5938 0.747905 13.2918 0.553668 14.0513L0.541167 14.1012L0.0311674 17.7888C-0.170083 19.2438 0.608667 20.78 2.21117 21.1613C3.67367 21.51 6.02617 21.875 9.46117 21.875C12.8974 21.875 15.2499 21.51 16.7124 21.1625C18.3149 20.78 19.0949 19.2437 18.8937 17.79L18.3824 14.1025L18.3699 14.0525C18.1757 13.2927 17.7926 12.5944 17.256 12.0224C16.7195 11.4505 16.047 11.0235 15.3012 10.7812L14.1024 10.3875C13.6716 10.2458 13.2366 10.125 12.7974 10.025L12.2949 9.90875L11.9324 10.2663L11.9312 10.2675C11.8828 10.3115 11.8328 10.3536 11.7812 10.3937C11.62 10.5218 11.4486 10.6363 11.2687 10.7362C10.7191 11.0539 10.0971 11.2248 9.46242 11.2325C8.82773 11.2248 8.20572 11.0539 7.65617 10.7362C7.42001 10.6029 7.19679 10.4458 6.99242 10.2675Z" fill="white"/>
</svg>
