<svg width="376" height="384" viewBox="0 0 376 384" fill="none" xmlns="http://www.w3.org/2000/svg">
<path d="M342.688 223.672C337.377 225.497 333.56 237.941 331.069 242.767C331.015 242.876 330.958 242.977 330.904 243.086C330.754 243.375 330.52 243.61 330.231 243.759C329.943 243.909 329.616 243.966 329.294 243.922C328.972 243.879 328.672 243.737 328.434 243.516C328.196 243.294 328.033 243.005 327.966 242.687C326.644 236.787 326.077 230.848 331.562 226.167C340.69 218.363 342.35 211.224 341.845 202.923C341.528 197.62 343.523 193.377 345.026 191.006C346.648 188.405 348.059 185.679 349.248 182.854C371.205 131.139 336.028 145.824 332.88 158.263C330.641 167.145 334.043 172.532 326.298 178.739C316.473 186.602 315.678 195.01 315.898 198.884C316.118 202.757 319.549 208.513 311.911 216.038C304.273 223.563 304.055 232.195 306.932 240.942C309.808 249.688 304.386 256.547 301.4 260.089L301.386 260.108C301.26 260.264 301.095 260.384 300.908 260.456C300.721 260.527 300.519 260.548 300.321 260.515C300.124 260.482 299.938 260.398 299.784 260.27C299.63 260.142 299.513 259.975 299.445 259.787C298.108 256.107 295.288 254.524 293.324 253.67C290.778 252.562 288.012 247.585 285.91 240.61C283.807 233.635 269.979 227.329 264.557 230.317C259.134 233.306 255.926 246.265 260.36 252.785C264.794 259.305 287.024 265.403 285.918 274.921C284.812 284.439 301.186 290.084 301.186 290.084C302.202 289.876 303.144 289.4 303.914 288.705C308.216 291.28 314.639 293.802 318.273 288.915C318.813 288.191 319.354 287.375 319.891 286.485C321.394 286.397 323.668 285.558 327.068 283.436C339.847 275.462 336.527 268.827 338.519 263.182C340.51 257.538 349.141 248.913 349.141 248.913C360.445 231.142 347.999 221.846 342.688 223.672Z" fill="#005188"/>
<path d="M311.657 283.289C311.533 283.289 311.413 283.24 311.324 283.153C311.236 283.066 311.185 282.948 311.183 282.823C310.648 249.39 319.576 217.962 327.158 197.484C335.375 175.3 343.831 160.821 343.917 160.676C343.949 160.622 343.99 160.575 344.04 160.537C344.089 160.499 344.146 160.472 344.206 160.456C344.266 160.44 344.329 160.436 344.391 160.444C344.453 160.452 344.512 160.473 344.566 160.504C344.62 160.535 344.667 160.577 344.705 160.626C344.743 160.676 344.77 160.732 344.786 160.793C344.802 160.853 344.806 160.916 344.798 160.977C344.79 161.039 344.769 161.099 344.738 161.152C344.654 161.295 336.231 175.717 328.045 197.828C320.491 218.227 311.602 249.526 312.135 282.813C312.136 282.875 312.125 282.937 312.103 282.994C312.08 283.052 312.046 283.105 312.003 283.149C311.96 283.194 311.908 283.23 311.852 283.254C311.795 283.279 311.734 283.292 311.672 283.293L311.657 283.289Z" fill="white"/>
<path d="M298.693 284.328C298.582 284.328 298.474 284.288 298.389 284.217C298.304 284.145 298.246 284.045 298.227 283.936C293.401 256.203 265.022 238.008 264.735 237.828C264.629 237.761 264.554 237.654 264.526 237.532C264.499 237.41 264.521 237.281 264.588 237.175C264.655 237.069 264.761 236.994 264.884 236.967C265.006 236.939 265.135 236.961 265.241 237.028C265.53 237.211 294.255 255.622 299.159 283.772C299.171 283.833 299.171 283.896 299.159 283.957C299.146 284.019 299.122 284.077 299.087 284.128C299.052 284.18 299.007 284.224 298.955 284.259C298.903 284.293 298.845 284.317 298.783 284.328C298.753 284.332 298.723 284.332 298.693 284.328Z" fill="white"/>
<path d="M318.657 282.511C318.614 282.511 318.572 282.506 318.531 282.494C318.471 282.478 318.415 282.45 318.366 282.412C318.317 282.374 318.276 282.326 318.245 282.272C318.215 282.218 318.195 282.158 318.187 282.097C318.18 282.035 318.185 281.973 318.202 281.913C323.605 262.345 338.862 241.25 339.016 241.04C339.05 240.985 339.096 240.938 339.149 240.902C339.203 240.865 339.263 240.84 339.327 240.828C339.391 240.816 339.456 240.817 339.52 240.831C339.583 240.845 339.643 240.872 339.695 240.91C339.748 240.948 339.792 240.996 339.825 241.052C339.858 241.108 339.879 241.17 339.887 241.234C339.895 241.299 339.89 241.364 339.872 241.426C339.854 241.489 339.823 241.546 339.782 241.596C339.628 241.806 324.463 262.765 319.112 282.165C319.085 282.264 319.026 282.352 318.943 282.415C318.861 282.478 318.76 282.511 318.657 282.511Z" fill="white"/>
<path d="M315.086 243.781C314.994 243.78 314.903 243.753 314.826 243.702C314.749 243.651 314.688 243.579 314.651 243.494C314.615 243.409 314.604 243.315 314.62 243.224C314.636 243.133 314.678 243.048 314.742 242.981C319.533 237.918 322.506 230.267 322.535 230.181C322.555 230.119 322.587 230.062 322.629 230.013C322.671 229.964 322.723 229.924 322.782 229.896C322.84 229.868 322.904 229.852 322.968 229.849C323.033 229.846 323.098 229.857 323.158 229.88C323.219 229.904 323.274 229.939 323.32 229.984C323.366 230.03 323.403 230.084 323.427 230.144C323.452 230.204 323.463 230.269 323.462 230.333C323.46 230.398 323.446 230.462 323.419 230.521C323.295 230.84 320.347 238.423 315.428 243.621C315.385 243.67 315.333 243.709 315.274 243.737C315.215 243.764 315.151 243.779 315.086 243.781Z" fill="white"/>
<path d="M314.049 252.08C313.947 252.079 313.848 252.046 313.766 251.985C313.685 251.924 313.625 251.838 313.596 251.74C313.567 251.642 313.571 251.538 313.606 251.442C313.641 251.347 313.706 251.265 313.791 251.209C319.681 247.396 322.059 240.717 322.082 240.646C322.123 240.527 322.209 240.43 322.322 240.375C322.435 240.32 322.565 240.313 322.684 240.354C322.802 240.395 322.9 240.482 322.954 240.595C323.009 240.708 323.017 240.838 322.976 240.956C322.877 241.241 320.457 248.015 314.305 252.004C314.229 252.053 314.14 252.079 314.049 252.08Z" fill="white"/>
<path d="M322.69 271.561C322.579 271.561 322.471 271.522 322.386 271.45C322.301 271.379 322.244 271.28 322.224 271.17C322.205 271.06 322.224 270.948 322.28 270.851C322.335 270.755 322.422 270.681 322.527 270.642C327.061 268.984 334.294 258.824 334.368 258.721C334.402 258.666 334.447 258.619 334.5 258.582C334.553 258.545 334.614 258.519 334.677 258.506C334.74 258.494 334.806 258.494 334.869 258.507C334.932 258.521 334.992 258.547 335.045 258.584C335.098 258.622 335.142 258.67 335.176 258.725C335.21 258.78 335.232 258.842 335.24 258.906C335.249 258.97 335.245 259.035 335.228 259.098C335.211 259.16 335.181 259.218 335.14 259.269C334.836 259.688 327.661 269.773 322.852 271.532C322.8 271.551 322.746 271.561 322.69 271.561Z" fill="white"/>
<path d="M277.953 248.275C277.933 248.278 277.914 248.278 277.894 248.275C277.832 248.269 277.771 248.251 277.716 248.221C277.661 248.191 277.612 248.15 277.573 248.101C277.534 248.052 277.505 247.995 277.488 247.935C277.471 247.874 277.467 247.811 277.474 247.749C278.335 240.742 273.907 235.652 273.865 235.601C273.823 235.555 273.79 235.5 273.768 235.441C273.747 235.382 273.738 235.319 273.741 235.256C273.744 235.193 273.76 235.132 273.787 235.075C273.814 235.018 273.853 234.968 273.9 234.926C273.947 234.884 274.002 234.852 274.061 234.832C274.121 234.811 274.184 234.803 274.247 234.807C274.31 234.812 274.371 234.828 274.427 234.857C274.483 234.885 274.534 234.924 274.574 234.972C274.768 235.182 279.327 240.428 278.412 247.862C278.398 247.975 278.344 248.079 278.26 248.154C278.175 248.23 278.066 248.273 277.953 248.275Z" fill="white"/>
<path d="M291.859 266.345C291.797 266.344 291.736 266.332 291.678 266.309C283.755 263.021 275.342 255.997 275.258 255.926C275.162 255.845 275.102 255.73 275.092 255.605C275.081 255.48 275.12 255.356 275.201 255.26C275.281 255.164 275.397 255.104 275.522 255.093C275.647 255.082 275.771 255.121 275.867 255.202C275.951 255.271 284.261 262.202 292.041 265.434C292.142 265.477 292.224 265.553 292.275 265.649C292.326 265.746 292.342 265.857 292.321 265.964C292.299 266.071 292.242 266.167 292.158 266.236C292.073 266.306 291.968 266.344 291.859 266.345Z" fill="white"/>
<path d="M325.206 204.333C325.113 204.333 325.022 204.306 324.944 204.254C324.866 204.202 324.806 204.128 324.77 204.042C321.918 197.228 323.775 188.57 323.855 188.205C323.869 188.144 323.894 188.087 323.93 188.036C323.966 187.985 324.012 187.942 324.065 187.909C324.117 187.875 324.176 187.853 324.238 187.842C324.299 187.832 324.362 187.833 324.423 187.847C324.483 187.861 324.541 187.887 324.592 187.923C324.643 187.959 324.686 188.004 324.719 188.057C324.752 188.11 324.775 188.168 324.785 188.23C324.796 188.291 324.794 188.354 324.78 188.415C324.762 188.501 322.909 197.148 325.643 203.683C325.668 203.741 325.681 203.803 325.682 203.866C325.683 203.929 325.671 203.992 325.648 204.051C325.624 204.109 325.589 204.162 325.545 204.207C325.5 204.252 325.447 204.288 325.389 204.312C325.33 204.33 325.268 204.337 325.206 204.333Z" fill="white"/>
<path d="M283.44 283.19H336.961V305.312C336.961 307.845 336.462 310.354 335.493 312.695C334.523 315.035 333.102 317.162 331.311 318.954C329.519 320.745 327.393 322.166 325.052 323.136C322.711 324.105 320.202 324.604 317.669 324.604H302.735C300.201 324.604 297.692 324.105 295.352 323.136C293.011 322.166 290.884 320.745 289.093 318.954C287.301 317.162 285.88 315.035 284.911 312.695C283.941 310.354 283.442 307.845 283.442 305.312V283.19H283.44Z" fill="white"/>
<path d="M317.669 325.085H302.733C297.492 325.079 292.468 322.994 288.762 319.289C285.056 315.583 282.972 310.559 282.966 305.318V283.191C282.966 283.065 283.016 282.944 283.105 282.855C283.194 282.766 283.314 282.716 283.44 282.716H336.962C337.087 282.716 337.208 282.766 337.297 282.855C337.386 282.944 337.436 283.065 337.436 283.191V305.312C337.431 310.553 335.348 315.579 331.642 319.286C327.936 322.993 322.911 325.079 317.669 325.085ZM283.912 283.663V305.312C283.918 310.302 285.902 315.085 289.431 318.614C292.959 322.142 297.743 324.127 302.733 324.132H317.669C322.659 324.127 327.443 322.142 330.971 318.614C334.499 315.085 336.484 310.302 336.489 305.312V283.656L283.912 283.663Z" fill="#005188"/>
<path d="M167.468 96.7319C167.4 96.7316 167.332 96.7164 167.269 96.6873C167.207 96.6583 167.152 96.6161 167.107 96.5637C167.063 96.5112 167.03 96.4498 167.012 96.3836C166.993 96.3174 166.989 96.2479 167 96.1801L170.467 75.5969L166.795 74.98C163.764 74.4695 161.061 72.7763 159.279 70.2727C157.497 67.7691 156.783 64.6603 157.293 61.6301L166.041 9.66133C166.552 6.6324 168.244 3.93013 170.746 2.14846C173.249 0.366781 176.356 -0.348503 179.385 0.159815L242.159 10.7294L304.934 21.299C306.434 21.5515 307.871 22.0972 309.16 22.9047C310.45 23.7123 311.568 24.766 312.451 26.0057C313.333 27.2453 313.963 28.6467 314.304 30.1297C314.645 31.6127 314.69 33.1484 314.437 34.649L305.687 86.6156C305.435 88.1161 304.889 89.5522 304.081 90.8418C303.274 92.1315 302.22 93.2494 300.98 94.1317C299.741 95.014 298.339 95.6435 296.856 95.9841C295.373 96.3248 293.838 96.37 292.337 96.1171L277.229 93.5739C277.111 93.547 277.007 93.476 276.94 93.3753C276.872 93.2747 276.846 93.152 276.866 93.0326C276.886 92.9132 276.951 92.8059 277.048 92.7329C277.145 92.66 277.266 92.6267 277.386 92.6401L292.495 95.1854C293.874 95.4181 295.285 95.3766 296.648 95.0635C298.011 94.7503 299.299 94.1715 300.439 93.3602C301.578 92.5489 302.546 91.521 303.288 90.3353C304.03 89.1495 304.531 87.8292 304.762 86.4498L313.512 34.4832C313.977 31.7024 313.319 28.8507 311.683 26.5548C310.046 24.2589 307.565 22.7066 304.785 22.2391L179.236 1.0936C176.453 0.62474 173.598 1.28058 171.299 2.91685C168.999 4.55313 167.444 7.03579 166.975 9.8187L158.227 61.7853C157.758 64.5683 158.414 67.4234 160.05 69.7228C161.686 72.0222 164.169 73.5773 166.952 74.0462L171.09 74.7429C171.151 74.7531 171.21 74.7753 171.263 74.8082C171.316 74.8412 171.362 74.8843 171.398 74.935C171.434 74.9857 171.459 75.043 171.473 75.1037C171.487 75.1643 171.489 75.2271 171.478 75.2885L168.094 95.389L198.193 79.4055C198.286 79.3572 198.392 79.3403 198.495 79.3573L236.581 85.7699C236.642 85.7801 236.701 85.8023 236.754 85.8353C236.807 85.8682 236.852 85.9113 236.888 85.962C236.924 86.0127 236.95 86.07 236.964 86.1307C236.978 86.1914 236.98 86.2542 236.969 86.3155C236.947 86.4387 236.877 86.5484 236.775 86.621C236.673 86.6936 236.547 86.7233 236.423 86.7037L198.495 80.3162L167.689 96.6837C167.62 96.7178 167.545 96.7344 167.468 96.7319Z" fill="#005188"/>
<path d="M229.232 270.175C231.846 269.841 234.248 268.566 235.99 266.589C237.731 264.612 238.692 262.068 238.692 259.433L239.399 110.598L236.742 104.859C236.742 104.859 231.927 101.647 229.398 100.209C227.817 99.3088 225.986 98.9486 224.181 99.183L9.45745 126.565C6.84409 126.899 4.44217 128.175 2.70134 130.152C0.960518 132.13 0.000140504 134.674 0 137.309V284.851C0.253905 293.901 12.4204 299.357 12.4204 299.357L229.232 270.175Z" fill="#005188"/>
<path d="M17.1795 300.276L233.2 272.726C235.83 272.391 238.247 271.109 239.999 269.119C241.751 267.13 242.717 264.57 242.717 261.919V113.481C242.715 112.28 242.459 111.092 241.963 109.997C241.468 108.902 240.745 107.925 239.843 107.132C238.941 106.338 237.88 105.745 236.731 105.392C235.582 105.04 234.371 104.936 233.179 105.088L17.148 132.631C14.5187 132.967 12.1019 134.249 10.3501 136.238C8.59841 138.228 7.63197 140.787 7.63184 143.438V291.882C7.63209 293.085 7.88872 294.274 8.38463 295.37C8.88053 296.466 9.60431 297.444 10.5077 298.238C11.4112 299.032 12.4735 299.625 13.6239 299.976C14.7744 300.327 15.9865 300.43 17.1795 300.276Z" fill="white"/>
<path d="M16.0966 300.813C13.726 300.812 11.4526 299.87 9.7763 298.194C8.10001 296.518 7.15803 294.244 7.15747 291.874V143.438C7.1626 140.673 8.17275 138.005 9.99964 135.93C11.8265 133.856 14.3455 132.516 17.0871 132.161L233.104 104.613C234.363 104.452 235.643 104.561 236.857 104.933C238.071 105.305 239.192 105.931 240.145 106.77C241.098 107.609 241.861 108.642 242.384 109.799C242.906 110.956 243.176 112.211 243.176 113.481V261.915C243.171 264.68 242.16 267.348 240.333 269.423C238.506 271.498 235.986 272.837 233.244 273.192L17.2276 300.742C16.8525 300.789 16.4748 300.813 16.0966 300.813ZM234.239 105.488C233.902 105.488 233.564 105.51 233.23 105.551L17.2067 133.101C14.6934 133.426 12.3841 134.654 10.7092 136.556C9.03441 138.458 8.10839 140.904 8.10385 143.438V291.882C8.10362 293.017 8.34522 294.139 8.81255 295.174C9.27989 296.208 9.96223 297.131 10.8141 297.881C11.6661 298.631 12.668 299.191 13.7532 299.524C14.8385 299.856 15.9821 299.954 17.108 299.81L233.129 272.262C235.643 271.937 237.952 270.709 239.627 268.807C241.302 266.904 242.229 264.458 242.234 261.923V113.481C242.234 112.431 242.027 111.392 241.625 110.422C241.223 109.452 240.634 108.571 239.892 107.829C239.15 107.086 238.268 106.498 237.298 106.096C236.328 105.695 235.289 105.488 234.239 105.488Z" fill="#005188"/>
<path d="M24.9038 293.282L225.453 267.706C227.894 267.395 230.138 266.204 231.765 264.357C233.391 262.51 234.288 260.133 234.287 257.672V119.868C234.287 118.752 234.05 117.649 233.59 116.632C233.131 115.615 232.46 114.708 231.622 113.97C230.785 113.233 229.8 112.682 228.733 112.355C227.666 112.028 226.541 111.932 225.434 112.073L24.8849 137.65C22.4436 137.961 20.1995 139.152 18.5729 140.998C16.9462 142.845 16.0488 145.222 16.0486 147.683V285.486C16.0488 286.602 16.2868 287.705 16.7466 288.722C17.2063 289.739 17.8774 290.647 18.7151 291.384C19.5529 292.122 20.538 292.672 21.6051 292.999C22.6722 293.327 23.7967 293.423 24.9038 293.282Z" fill="white"/>
<path d="M23.9091 293.819C21.699 293.818 19.5795 292.94 18.0169 291.377C16.4543 289.814 15.5764 287.694 15.5764 285.484V147.681C15.5836 145.108 16.5255 142.626 18.2267 140.695C19.9279 138.765 22.2725 137.519 24.824 137.189L225.373 111.614C226.547 111.464 227.739 111.566 228.871 111.913C230.002 112.26 231.046 112.844 231.935 113.626C232.823 114.408 233.534 115.37 234.022 116.448C234.509 117.526 234.761 118.696 234.762 119.879V257.678C234.754 260.252 233.812 262.734 232.111 264.664C230.409 266.595 228.064 267.841 225.512 268.17L24.9625 293.752C24.6131 293.796 24.2613 293.819 23.9091 293.819ZM226.429 112.482C226.116 112.482 225.803 112.502 225.493 112.541L24.9436 138.118C22.6181 138.418 20.4809 139.553 18.9313 141.313C17.3817 143.073 16.5255 145.336 16.5228 147.681V285.484C16.5227 286.533 16.746 287.57 17.1779 288.526C17.6097 289.482 18.2402 290.335 19.0273 291.028C19.8144 291.721 20.7402 292.239 21.7429 292.546C22.7457 292.854 23.8024 292.944 24.8429 292.812L225.392 267.237C227.719 266.938 229.857 265.802 231.407 264.042C232.957 262.282 233.813 260.018 233.815 257.672V119.869C233.815 118.899 233.624 117.938 233.253 117.042C232.882 116.146 232.338 115.332 231.652 114.646C230.966 113.96 230.152 113.416 229.256 113.045C228.359 112.673 227.399 112.482 226.429 112.482Z" fill="#005188"/>
<path d="M143.083 383.75L363.917 355.27C364.673 355.18 365.367 354.81 365.863 354.233C366.359 353.656 366.621 352.914 366.597 352.154C366.582 351.157 366.501 344.128 366.501 344.128L249.736 277.374C243.885 274.033 236.306 272.743 229.633 273.597L11.5872 301.715C10.9419 301.799 10.3295 302.049 9.81058 302.442C9.29168 302.834 8.88423 303.356 8.62851 303.954L8.27808 304.775C8.27808 304.775 8.46483 310.637 8.38929 312.006C8.35305 312.573 8.479 313.14 8.75245 313.639C9.0259 314.138 9.43558 314.549 9.93371 314.824L123.778 379.92C129.626 383.259 136.403 384.603 143.083 383.75Z" fill="#005188"/>
<path d="M143.083 375.927L363.126 347.502C366.047 347.129 366.815 343.253 364.259 341.792L251.035 277.126C245.186 273.787 238.41 272.443 231.729 273.297L11.6817 301.721C8.76077 302.095 7.99276 305.969 10.5486 307.429L123.778 372.097C129.626 375.436 136.403 376.781 143.083 375.927Z" fill="white"/>
<path d="M139.197 376.657C133.707 376.657 128.311 375.23 123.538 372.517L10.3135 307.84C9.66881 307.472 9.15613 306.91 8.84798 306.235C8.53983 305.559 8.45178 304.804 8.59629 304.076C8.7408 303.347 9.11056 302.683 9.6533 302.176C10.196 301.669 10.8843 301.346 11.6208 301.252L231.664 272.827C238.449 271.972 245.329 273.336 251.274 276.715L364.499 341.383C365.143 341.752 365.656 342.313 365.964 342.989C366.272 343.664 366.36 344.42 366.216 345.148C366.071 345.876 365.702 346.541 365.159 347.048C364.616 347.554 363.928 347.878 363.191 347.972L143.148 376.397C141.838 376.568 140.518 376.654 139.197 376.657ZM235.626 273.534C234.345 273.534 233.065 273.616 231.794 273.777L11.7405 302.192C11.2015 302.261 10.698 302.499 10.301 302.87C9.90411 303.241 9.63372 303.728 9.52802 304.261C9.42232 304.794 9.48664 305.347 9.71191 305.842C9.93717 306.336 10.312 306.748 10.7836 307.018L124.008 371.686C129.773 374.967 136.445 376.292 143.026 375.463L363.07 347.038C363.609 346.969 364.113 346.732 364.51 346.361C364.907 345.99 365.178 345.503 365.284 344.97C365.39 344.437 365.325 343.884 365.1 343.389C364.875 342.894 364.5 342.482 364.029 342.212L250.804 277.546C246.177 274.912 240.946 273.526 235.622 273.521L235.626 273.534Z" fill="#005188"/>
<path d="M96.4987 340.728C91.5326 340.728 86.6517 339.437 82.3346 336.983L37.471 311.619C36.8808 311.282 36.4115 310.767 36.1294 310.148C35.8473 309.53 35.7667 308.838 35.8988 308.171C36.031 307.504 36.3693 306.895 36.866 306.431C37.3627 305.966 37.9927 305.669 38.6671 305.582L229.465 280.76C235.603 279.986 241.827 281.22 247.205 284.277L292.069 309.634C292.66 309.971 293.13 310.486 293.413 311.105C293.695 311.724 293.776 312.416 293.645 313.083C293.513 313.751 293.174 314.36 292.677 314.825C292.18 315.29 291.55 315.586 290.875 315.673L100.066 340.499C98.8829 340.651 97.6915 340.727 96.4987 340.728ZM233.051 281.472C231.897 281.468 230.743 281.538 229.598 281.682L38.7909 306.51C38.3162 306.576 37.8739 306.788 37.5253 307.117C37.1768 307.446 36.9393 307.876 36.8459 308.346C36.7525 308.816 36.8077 309.304 37.004 309.741C37.2002 310.178 37.5277 310.544 37.9411 310.786L82.7942 336.158C87.9931 339.113 94.0089 340.306 99.9422 339.559L290.751 314.731C291.225 314.663 291.666 314.45 292.013 314.12C292.36 313.79 292.596 313.361 292.688 312.891C292.781 312.421 292.725 311.934 292.528 311.498C292.331 311.061 292.003 310.697 291.59 310.455L246.743 285.094C242.567 282.719 237.845 281.471 233.041 281.472H233.051Z" fill="#005188"/>
<path d="M211.037 355.136C209.649 355.135 208.286 354.773 207.079 354.087L181.427 340.057C181.204 339.933 181.026 339.741 180.918 339.509C180.811 339.277 180.779 339.017 180.828 338.767C180.877 338.516 181.004 338.287 181.19 338.112C181.377 337.938 181.614 337.827 181.867 337.795L234.973 330.935C236.688 330.72 238.427 331.065 239.93 331.918L265.583 345.947C265.806 346.072 265.984 346.264 266.091 346.496C266.199 346.727 266.23 346.987 266.181 347.238C266.132 347.489 266.006 347.718 265.819 347.892C265.632 348.067 265.395 348.178 265.142 348.209L212.036 355.069C211.705 355.113 211.371 355.136 211.037 355.136ZM235.972 331.823C235.678 331.824 235.385 331.842 235.093 331.878L181.987 338.739C181.931 338.746 181.879 338.77 181.837 338.808C181.796 338.847 181.768 338.897 181.757 338.952C181.746 339.007 181.753 339.065 181.776 339.116C181.8 339.167 181.839 339.209 181.888 339.237L207.541 353.264C208.867 354.02 210.402 354.326 211.916 354.135L265.022 347.274C265.078 347.268 265.131 347.245 265.172 347.207C265.213 347.169 265.241 347.119 265.251 347.064C265.263 347.008 265.257 346.951 265.234 346.899C265.21 346.848 265.171 346.805 265.121 346.778L239.468 332.751C238.403 332.144 237.198 331.824 235.972 331.823Z" fill="#005188"/>
<path d="M87.352 307.807C87.2322 307.805 87.1174 307.758 87.0307 307.676C86.944 307.593 86.8918 307.481 86.8846 307.361C86.8775 307.241 86.9158 307.124 86.992 307.031C87.0682 306.939 87.1766 306.878 87.2954 306.863L167.116 297.16C167.237 297.152 167.356 297.191 167.449 297.268C167.542 297.346 167.602 297.456 167.616 297.576C167.631 297.696 167.599 297.817 167.527 297.915C167.455 298.012 167.348 298.078 167.229 298.1L87.4108 307.803L87.352 307.807Z" fill="#005188"/>
<path d="M122.248 315.632C122.128 315.63 122.014 315.582 121.928 315.5C121.841 315.417 121.789 315.304 121.783 315.185C121.776 315.065 121.814 314.948 121.89 314.855C121.967 314.763 122.075 314.703 122.194 314.687L145.366 311.871C145.43 311.86 145.495 311.862 145.558 311.876C145.621 311.891 145.68 311.918 145.732 311.957C145.784 311.995 145.827 312.044 145.86 312.099C145.892 312.155 145.913 312.217 145.921 312.281C145.928 312.345 145.923 312.41 145.905 312.472C145.886 312.534 145.856 312.592 145.814 312.641C145.773 312.691 145.722 312.732 145.664 312.761C145.607 312.79 145.544 312.807 145.479 312.811L122.309 315.627L122.248 315.632Z" fill="#005188"/>
<path d="M204.887 317.04C204.764 317.044 204.644 316.999 204.554 316.917C204.463 316.834 204.408 316.719 204.401 316.596C204.393 316.474 204.434 316.353 204.514 316.26C204.594 316.167 204.708 316.109 204.83 316.098L228.003 313.286C228.124 313.277 228.243 313.316 228.337 313.393C228.431 313.47 228.491 313.581 228.506 313.701C228.521 313.822 228.489 313.943 228.417 314.041C228.344 314.138 228.238 314.205 228.118 314.226L204.943 317.044L204.887 317.04Z" fill="#005188"/>
<mask id="mask0_4015_71" style="mask-type:luminance" maskUnits="userSpaceOnUse" x="16" y="36" width="324" height="258">
<path d="M24.9038 293.282L225.453 267.706C227.894 267.395 230.138 266.204 231.765 264.357C233.391 262.51 234.288 260.133 234.287 257.672L339.008 85.2851C339.008 80.549 230.131 35.8575 225.434 36.4576L24.8849 62.0328C22.4435 62.3442 20.1993 63.535 18.5727 65.3822C16.9461 67.2293 16.0487 69.6061 16.0486 72.0673V285.484C16.0486 286.6 16.2863 287.704 16.7459 288.721C17.2056 289.738 17.8766 290.646 18.7144 291.384C19.5521 292.121 20.5374 292.672 21.6046 292.999C22.6718 293.327 23.7965 293.423 24.9038 293.282Z" fill="white"/>
</mask>
<g mask="url(#mask0_4015_71)">
<path d="M125.774 402.356L126.865 351.468C126.865 351.468 134.581 369.608 139.665 402.356H197.371C192.265 355.178 175.732 312.371 171.015 300.88C170.618 299.906 170.011 299.032 169.237 298.319C168.464 297.607 167.542 297.074 166.539 296.759C155.266 293.223 115.968 283.906 75.5066 309.85C74.5649 310.454 73.7769 311.269 73.2054 312.231C72.6338 313.193 72.2945 314.274 72.2143 315.39C71.4861 325.62 69.7717 357.358 72.4241 402.356H125.774Z" fill="#005188"/>
<path d="M258.163 110.849C258.163 110.849 258.396 89.8654 258.774 84.1704C259.193 77.7074 250.363 85.0433 250.023 104.856L258.163 110.849Z" fill="white"/>
<path d="M258.163 111.324C258.062 111.323 257.964 111.291 257.882 111.231L249.742 105.238C249.681 105.193 249.632 105.135 249.598 105.067C249.565 104.999 249.548 104.924 249.549 104.848C249.78 91.4183 253.943 83.2094 256.825 81.6713C257.605 81.2516 258.142 81.409 258.457 81.6125C259.068 82.007 259.332 82.8715 259.246 84.2019C258.875 89.8088 258.64 110.642 258.635 110.851C258.634 110.976 258.584 111.095 258.496 111.183C258.407 111.27 258.288 111.319 258.163 111.319V111.324ZM250.5 104.621L257.702 109.922C257.752 105.801 257.974 89.0891 258.302 84.139C258.371 83.0772 258.163 82.5484 257.943 82.4078C257.723 82.2672 257.439 82.4078 257.269 82.5064C255.261 83.5787 250.792 90.6272 250.5 104.621Z" fill="#005188"/>
<path d="M254.636 132.085C256.682 127.7 260.945 118.316 261.243 115.604C261.548 112.826 259.355 110.463 258.375 109.551C257.792 109.011 257.238 108.441 256.696 107.872L251.589 102.498C250.311 101.22 249.818 99.2727 247.879 99.3671C244.179 99.5475 242.492 105.698 242.492 105.698C242.492 105.698 239.236 102.55 237.179 103.702C235.123 104.854 230.926 114.247 234.52 124.686C237.708 133.932 239.475 131.496 239.374 138.057C237.905 153.795 231.033 188.54 219.206 187.21C207.38 185.88 201.603 177.028 201.603 177.028L174.334 203.561C174.334 203.561 190.912 228.84 223.384 226.091C269.935 222.148 253.519 137.805 253.515 137.784C253.503 137.388 253.496 137.071 253.503 136.855C253.55 135.204 253.936 133.581 254.636 132.085Z" fill="white"/>
<path d="M218.554 226.769C204.075 226.769 193.214 221.198 186.406 216.239C178.223 210.28 173.98 203.884 173.938 203.819C173.878 203.727 173.852 203.617 173.864 203.508C173.876 203.399 173.926 203.297 174.005 203.221L201.265 176.681C201.315 176.632 201.376 176.594 201.442 176.572C201.508 176.549 201.578 176.541 201.648 176.548C201.718 176.556 201.785 176.579 201.844 176.616C201.904 176.652 201.955 176.702 201.993 176.76C202.05 176.846 207.793 185.441 219.253 186.732C220.843 186.912 222.427 186.371 223.959 185.127C232.263 178.374 237.527 152.639 238.896 138.005C238.948 134.503 238.476 133.752 237.454 132.104C236.615 130.772 235.486 128.944 234.067 124.831C230.345 114.029 234.791 104.477 236.942 103.289C238.742 102.291 241.17 103.978 242.255 104.865C242.845 103.174 244.607 99.0527 247.849 98.8932C249.459 98.8093 250.223 99.9025 250.961 100.954C251.245 101.383 251.564 101.787 251.916 102.163L257.026 107.539C257.54 108.08 258.098 108.659 258.688 109.203C259.705 110.145 262.045 112.654 261.705 115.657C261.407 118.368 257.412 127.238 255.057 132.285C254.383 133.721 254.011 135.281 253.966 136.868C253.966 137.078 253.966 137.365 253.979 137.732C254.157 138.656 256.53 151.284 256.772 166.934C256.998 181.652 255.269 201.84 245.743 214.443C240.262 221.693 232.749 225.774 223.416 226.561C221.758 226.704 220.134 226.769 218.554 226.769ZM174.951 203.62C175.91 204.973 179.987 210.393 186.994 215.494C193.677 220.359 204.354 225.823 218.558 225.823C220.113 225.823 221.706 225.758 223.344 225.613C232.399 224.845 239.685 220.894 244.996 213.862C262.941 190.121 253.152 138.385 253.051 137.865C253.048 137.84 253.048 137.815 253.051 137.791C253.037 137.371 253.032 137.055 253.039 136.832C253.085 135.116 253.485 133.427 254.216 131.874C256.092 127.853 260.488 118.215 260.782 115.544C261.063 112.969 258.975 110.73 258.054 109.878C257.445 109.314 256.873 108.722 256.348 108.168L251.238 102.817C250.851 102.406 250.5 101.962 250.189 101.491C249.444 100.429 248.93 99.7829 247.898 99.8333C244.578 99.9949 242.96 105.759 242.945 105.818C242.924 105.897 242.881 105.969 242.823 106.027C242.765 106.084 242.693 106.126 242.614 106.147C242.535 106.17 242.451 106.171 242.372 106.151C242.292 106.13 242.219 106.089 242.161 106.032C241.321 105.228 238.835 103.317 237.404 104.112C235.488 105.176 231.469 114.375 234.965 124.517C236.348 128.529 237.452 130.302 238.26 131.597C239.309 133.296 239.901 134.232 239.842 138.049C238.459 152.874 233.085 178.92 224.557 185.855C222.824 187.265 221.003 187.871 219.148 187.666C208.809 186.503 202.944 179.599 201.536 177.734L174.951 203.62Z" fill="#005188"/>
<path d="M249.278 124.741C247.656 124.741 245.543 123.822 243.422 121.222C239.147 115.976 242.018 105.606 242.144 105.167C242.161 105.107 242.189 105.051 242.227 105.002C242.266 104.953 242.313 104.913 242.368 104.882C242.422 104.852 242.482 104.832 242.543 104.825C242.605 104.818 242.668 104.823 242.727 104.84C242.848 104.874 242.95 104.955 243.012 105.065C243.073 105.175 243.088 105.304 243.055 105.425C243.025 105.528 240.192 115.768 244.156 120.624C246.62 123.645 249.004 124.122 250.292 123.614C251.276 123.226 251.811 122.239 251.727 120.974C251.586 118.876 250.743 116.885 249.335 115.323C249.247 115.234 249.198 115.114 249.198 114.988C249.198 114.863 249.247 114.743 249.335 114.654C249.379 114.61 249.431 114.575 249.488 114.551C249.545 114.527 249.607 114.515 249.669 114.515C249.731 114.515 249.792 114.527 249.849 114.551C249.907 114.575 249.959 114.61 250.002 114.654C251.588 116.373 252.533 118.586 252.678 120.92C252.791 122.617 252.032 123.956 250.647 124.502C250.21 124.667 249.746 124.748 249.278 124.741Z" fill="#005188"/>
<path d="M187.922 223.936L214.894 171.816L188.278 148.759C188.278 148.759 149.448 127.758 124.462 131.605C111.846 133.548 91.3074 135.678 79.8418 140.888C67.688 146.411 49.2053 155.543 42.7297 167.223L35.9414 194.901C46.5865 204.866 76.369 212.959 76.369 212.959L54.8059 301.178C78.1946 324.841 160.401 313.768 184.868 310.291L176.926 219.166L187.922 223.936Z" fill="white"/>
<path d="M116.495 316.4C85.3125 316.4 64.2551 311.41 54.4703 301.512C54.4137 301.454 54.3726 301.383 54.3509 301.305C54.3293 301.227 54.3277 301.145 54.3465 301.067L75.8005 213.295C71.91 212.208 45.6424 204.631 35.6184 195.249C35.5565 195.192 35.5112 195.119 35.4872 195.038C35.4632 194.957 35.4614 194.871 35.482 194.79L42.2703 167.112C42.2803 167.071 42.2959 167.033 42.3164 166.996C48.5948 155.665 65.5645 146.852 79.6468 140.458C89.1546 136.135 104.655 133.949 117.105 132.195C119.713 131.825 122.177 131.479 124.391 131.145C149.248 127.32 188.115 148.142 188.503 148.352C188.534 148.368 188.563 148.388 188.589 148.411L215.203 171.468C215.283 171.537 215.338 171.632 215.358 171.736C215.379 171.84 215.363 171.949 215.314 172.043L188.343 224.161C188.288 224.267 188.194 224.347 188.081 224.386C187.968 224.425 187.844 224.42 187.735 224.371L177.465 219.907L185.341 310.243C185.351 310.363 185.315 310.483 185.24 310.578C185.165 310.673 185.055 310.734 184.936 310.751C158.506 314.526 135.598 316.4 116.495 316.4ZM55.3307 301.033C71.0245 316.578 115.622 319.64 184.359 309.886L176.448 219.206C176.441 219.125 176.455 219.043 176.49 218.968C176.524 218.894 176.577 218.83 176.644 218.782C176.71 218.734 176.788 218.705 176.87 218.696C176.951 218.687 177.033 218.7 177.109 218.732L187.699 223.326L214.296 171.93L188.001 149.152C186.472 148.333 148.69 128.354 124.527 132.073C122.309 132.415 119.841 132.763 117.231 133.122C104.84 134.87 89.419 137.044 80.0329 141.306C67.1908 147.139 49.409 156.188 43.1684 167.385L36.4535 194.731C47.0651 204.419 76.1845 212.412 76.4803 212.492C76.5995 212.524 76.7014 212.601 76.7642 212.707C76.8269 212.814 76.8456 212.94 76.8161 213.06L55.3307 301.033Z" fill="#005188"/>
<path d="M134.935 160.458C134.877 160.457 134.82 160.447 134.765 160.426L92.0567 144.008C91.9986 143.986 91.9454 143.952 91.9002 143.91C91.8551 143.867 91.8188 143.815 91.7934 143.758C91.7681 143.702 91.7542 143.64 91.7526 143.578C91.751 143.516 91.7616 143.454 91.784 143.396C91.8063 143.337 91.8398 143.284 91.8827 143.239C91.9256 143.194 91.9769 143.158 92.0338 143.132C92.0907 143.107 92.152 143.093 92.2143 143.091C92.2766 143.09 92.3385 143.1 92.3967 143.123L135.109 159.543C135.214 159.581 135.301 159.656 135.356 159.752C135.411 159.849 135.43 159.962 135.41 160.072C135.389 160.181 135.331 160.28 135.245 160.351C135.159 160.421 135.051 160.459 134.939 160.458H134.935Z" fill="#005188"/>
<path d="M169.342 200.744L100.782 179.57C100.366 179.441 99.93 179.396 99.4973 179.437C99.0646 179.477 98.6441 179.603 98.2598 179.806C97.8756 180.009 97.5351 180.285 97.2578 180.62C96.9805 180.955 96.7718 181.341 96.6437 181.756L68.9639 271.385C68.7075 272.222 68.7934 273.127 69.2029 273.901C69.6123 274.675 70.3119 275.255 71.1483 275.514L139.709 296.687C140.547 296.946 141.454 296.861 142.23 296.452C143.006 296.042 143.588 295.341 143.847 294.503L171.527 204.874C171.783 204.037 171.697 203.132 171.288 202.358C170.878 201.584 170.179 201.004 169.342 200.744Z" fill="white"/>
<path d="M140.683 297.316C140.305 297.317 139.93 297.261 139.569 297.149L71.008 275.974C70.5334 275.828 70.0922 275.589 69.7097 275.273C69.3272 274.956 69.011 274.567 68.779 274.128C68.5471 273.689 68.404 273.208 68.358 272.714C68.312 272.219 68.364 271.72 68.5109 271.246L96.1929 181.615C96.339 181.141 96.5772 180.7 96.8939 180.317C97.2107 179.935 97.5998 179.618 98.0389 179.386C98.478 179.155 98.9586 179.011 99.453 178.965C99.9475 178.919 100.446 178.971 100.921 179.118L169.481 200.293C169.956 200.439 170.398 200.677 170.78 200.994C171.163 201.31 171.479 201.699 171.712 202.139C171.944 202.578 172.087 203.058 172.133 203.553C172.179 204.048 172.127 204.546 171.98 205.021L144.298 294.651C144.06 295.424 143.581 296.1 142.93 296.58C142.279 297.059 141.491 297.318 140.683 297.316ZM99.8021 179.895C99.1969 179.896 98.6078 180.09 98.1211 180.45C97.6344 180.81 97.2756 181.316 97.0973 181.895L69.4153 271.527C69.3054 271.883 69.2665 272.257 69.3011 272.627C69.3356 272.998 69.4429 273.358 69.6167 273.687C69.7905 274.016 70.0275 274.308 70.3142 274.546C70.6008 274.783 70.9314 274.962 71.2871 275.071L139.848 296.246C140.566 296.467 141.343 296.394 142.007 296.043C142.672 295.692 143.171 295.092 143.394 294.375L171.074 204.744C171.295 204.025 171.222 203.249 170.871 202.584C170.52 201.919 169.92 201.421 169.202 201.198L100.641 180.025C100.37 179.939 100.087 179.895 99.8021 179.895Z" fill="#005188"/>
<path d="M161.599 205.572L104.979 187.878L78.338 273.128L134.958 290.822L161.599 205.572Z" fill="white"/>
<path d="M135.67 288.598C135.622 288.598 135.575 288.591 135.529 288.577L79.1767 271.173C79.0569 271.136 78.9568 271.052 78.8982 270.942C78.8396 270.831 78.8273 270.701 78.8641 270.581L105.069 185.735C105.087 185.675 105.117 185.62 105.156 185.572C105.196 185.524 105.245 185.485 105.3 185.456C105.355 185.426 105.415 185.409 105.477 185.403C105.539 185.397 105.601 185.404 105.66 185.422L162.013 202.826C162.072 202.844 162.127 202.874 162.175 202.914C162.223 202.953 162.263 203.002 162.292 203.057C162.321 203.112 162.339 203.172 162.345 203.234C162.35 203.296 162.344 203.359 162.325 203.418L136.121 288.264C136.091 288.361 136.031 288.445 135.95 288.505C135.869 288.565 135.771 288.598 135.67 288.598ZM79.9091 270.409L135.357 287.534L161.283 203.598L105.833 186.476L79.9091 270.409Z" fill="#005188"/>
<path d="M151.668 191.106L120.811 181.576C120.304 181.419 119.77 181.364 119.242 181.413C118.713 181.463 118.199 181.616 117.73 181.864C117.26 182.112 116.845 182.45 116.506 182.859C116.167 183.268 115.912 183.739 115.756 184.247L113.576 191.308L152.159 203.223L154.339 196.161C154.655 195.137 154.551 194.029 154.05 193.081C153.549 192.133 152.692 191.423 151.668 191.106Z" fill="white"/>
<path d="M152.159 203.697C152.111 203.696 152.064 203.689 152.018 203.676L113.435 191.76C113.376 191.741 113.32 191.712 113.272 191.672C113.224 191.632 113.185 191.584 113.156 191.529C113.127 191.474 113.109 191.413 113.103 191.352C113.097 191.29 113.104 191.227 113.122 191.168L115.303 184.107C115.657 182.962 116.45 182.005 117.51 181.446C118.569 180.887 119.807 180.772 120.951 181.125L151.798 190.654C152.943 191.007 153.9 191.801 154.46 192.86C155.019 193.92 155.135 195.158 154.782 196.303L152.599 203.364C152.57 203.458 152.512 203.542 152.433 203.602C152.354 203.662 152.258 203.695 152.159 203.697ZM114.178 190.996L151.857 202.631L153.896 196.023C154.035 195.576 154.084 195.105 154.041 194.638C153.998 194.171 153.863 193.717 153.644 193.302C153.425 192.887 153.126 192.52 152.765 192.221C152.404 191.921 151.988 191.696 151.54 191.558L120.693 182.027C119.788 181.75 118.81 181.842 117.974 182.284C117.137 182.726 116.509 183.482 116.228 184.386L114.178 190.996Z" fill="#005188"/>
<path d="M140.183 173.572C139.094 173.236 137.949 173.117 136.815 173.223C135.68 173.329 134.577 173.658 133.569 174.19C132.561 174.723 131.668 175.448 130.941 176.326C130.213 177.204 129.666 178.216 129.33 179.305L126.768 187.592L143.345 192.714L145.905 184.421C146.584 182.223 146.363 179.846 145.29 177.812C144.217 175.778 142.38 174.253 140.183 173.572ZM137.961 180.772C137.637 180.672 137.349 180.478 137.135 180.215C136.921 179.952 136.79 179.632 136.758 179.294C136.726 178.957 136.796 178.617 136.957 178.319C137.118 178.02 137.364 177.776 137.664 177.618C137.963 177.459 138.303 177.393 138.641 177.428C138.978 177.463 139.298 177.597 139.559 177.813C139.82 178.029 140.011 178.318 140.108 178.643C140.205 178.968 140.203 179.315 140.103 179.639C139.969 180.073 139.668 180.436 139.267 180.649C138.865 180.861 138.395 180.905 137.961 180.772Z" fill="white"/>
<path d="M143.354 193.193C143.306 193.192 143.259 193.184 143.214 193.17L126.636 188.049C126.577 188.031 126.521 188.002 126.474 187.962C126.426 187.922 126.386 187.874 126.357 187.819C126.328 187.764 126.31 187.703 126.304 187.641C126.299 187.58 126.305 187.517 126.324 187.458L128.884 179.165C129.621 176.872 131.233 174.962 133.37 173.849C135.507 172.737 137.996 172.512 140.298 173.222C142.599 173.933 144.528 175.523 145.666 177.646C146.803 179.77 147.057 182.256 146.374 184.566L143.812 192.859C143.781 192.956 143.72 193.041 143.638 193.101C143.555 193.161 143.456 193.193 143.354 193.193ZM127.36 187.284L143.041 192.127L145.463 184.287C146.072 182.217 145.841 179.991 144.821 178.09C143.801 176.189 142.073 174.766 140.012 174.13C137.95 173.493 135.721 173.694 133.806 174.688C131.892 175.683 130.446 177.391 129.782 179.444L127.36 187.284ZM138.465 181.322C138.247 181.322 138.029 181.289 137.821 181.226C137.292 181.063 136.845 180.707 136.568 180.229C136.291 179.75 136.205 179.185 136.327 178.646C136.45 178.107 136.772 177.634 137.228 177.322C137.684 177.011 138.242 176.883 138.788 176.965C139.335 177.047 139.831 177.332 140.175 177.764C140.52 178.196 140.689 178.742 140.648 179.294C140.608 179.845 140.36 180.36 139.955 180.736C139.55 181.113 139.018 181.322 138.465 181.322ZM138.1 180.321C138.374 180.405 138.669 180.392 138.934 180.283C139.2 180.175 139.419 179.977 139.555 179.725C139.692 179.472 139.736 179.18 139.681 178.899C139.627 178.617 139.476 178.363 139.255 178.181C139.034 177.998 138.757 177.897 138.47 177.896C138.183 177.894 137.905 177.992 137.682 178.173C137.459 178.354 137.306 178.607 137.249 178.888C137.192 179.169 137.233 179.461 137.367 179.715C137.522 180.006 137.785 180.224 138.1 180.321Z" fill="#005188"/>
<path d="M152.705 214.1L107.013 199.991L105.844 203.779L151.535 217.888L152.705 214.1Z" fill="#005188"/>
<path d="M150.308 221.866L104.617 207.757L103.447 211.545L149.139 225.654L150.308 221.866Z" fill="#005188"/>
<path d="M147.907 229.634L102.215 215.525L101.046 219.312L146.737 233.421L147.907 229.634Z" fill="#005188"/>
<path d="M40.1259 197.788L73.7568 212.645C73.7568 212.645 64.4148 229.78 96.3439 241.653C128.273 253.526 134.935 248 134.935 248L145.902 230.135C145.902 230.135 149.716 230.878 147.343 237.034C144.97 243.191 143.637 245.743 149.941 245.168C156.245 244.593 162.351 236.354 162.351 236.354C162.351 236.354 163.215 242.551 160.043 247.138C160.043 247.138 162.928 248.896 158.886 254.495C158.886 254.495 160.234 257.072 154.56 261.854C154.56 261.854 158.32 265.023 147.343 267.335C141.285 268.611 133.494 266.473 133.494 266.473C133.494 266.473 86.9914 278.622 59.3094 261.856C31.6274 245.09 40.1259 197.788 40.1259 197.788Z" fill="white"/>
<path d="M98.3475 271.19C85.7173 271.19 70.718 269.318 59.0614 262.257C47.6105 255.32 40.625 241.947 38.8644 223.577C37.5383 209.753 39.6366 197.824 39.6576 197.704C39.6709 197.634 39.6998 197.567 39.7423 197.51C39.7848 197.452 39.8398 197.405 39.9031 197.371C39.9664 197.338 40.0365 197.319 40.1081 197.316C40.1796 197.314 40.2509 197.327 40.3165 197.356L73.9474 212.212C74.0076 212.238 74.0616 212.277 74.1061 212.325C74.1505 212.373 74.1844 212.43 74.2056 212.492C74.2267 212.554 74.2346 212.62 74.2289 212.685C74.2231 212.751 74.2037 212.814 74.1719 212.871C74.1468 212.917 71.6392 217.67 73.9243 223.751C76.5494 230.739 84.1477 236.612 96.5093 241.208C126.149 252.229 133.877 248.116 134.582 247.669L145.494 229.887C145.545 229.806 145.62 229.743 145.708 229.705C145.796 229.668 145.893 229.658 145.987 229.677C146.431 229.788 146.846 229.99 147.207 230.27C147.568 230.55 147.867 230.902 148.086 231.304C148.86 232.703 148.761 234.692 147.79 237.211L147.418 238.167C146.262 241.145 145.427 243.294 146.071 244.148C146.491 244.719 147.75 244.899 149.903 244.702C155.925 244.152 161.914 236.157 161.973 236.075C162.029 236.003 162.105 235.95 162.192 235.92C162.278 235.89 162.372 235.886 162.46 235.909C162.549 235.931 162.629 235.978 162.692 236.045C162.754 236.112 162.796 236.195 162.812 236.285C162.848 236.541 163.626 242.417 160.659 247.052C161.055 247.48 161.322 248.012 161.429 248.586C161.755 250.191 161.073 252.203 159.406 254.57C159.616 255.41 159.738 257.959 155.222 261.9C155.408 262.144 155.537 262.426 155.6 262.726C155.663 263.025 155.659 263.336 155.587 263.633C155.168 265.346 152.415 266.747 147.435 267.797C141.677 269.01 134.538 267.236 133.483 266.957C132.192 267.283 120.941 270.036 106.802 270.919C104.171 271.085 101.325 271.19 98.3475 271.19ZM40.4928 198.468C40.0941 201.038 38.6588 211.558 39.8087 223.508C41.0174 236.098 45.4261 252.885 59.5525 261.447C70.7138 268.208 85.0731 270.21 98.1628 270.21C116.954 270.21 133.107 266.082 133.38 266.013C133.46 265.991 133.545 265.991 133.626 266.013C133.703 266.034 141.379 268.111 147.255 266.869C153.279 265.61 154.496 264.141 154.685 263.401C154.853 262.733 154.265 262.219 154.265 262.215C154.213 262.17 154.171 262.115 154.142 262.052C154.113 261.99 154.098 261.922 154.098 261.853C154.098 261.784 154.113 261.716 154.142 261.653C154.171 261.591 154.213 261.536 154.265 261.491C159.497 257.084 158.485 254.726 158.475 254.701C158.439 254.623 158.424 254.538 158.431 254.453C158.438 254.368 158.467 254.286 158.515 254.216C160.502 251.465 160.705 249.757 160.527 248.808C160.46 248.306 160.2 247.849 159.803 247.535C159.749 247.5 159.703 247.455 159.667 247.403C159.631 247.35 159.606 247.291 159.593 247.229C159.58 247.167 159.58 247.102 159.592 247.04C159.604 246.977 159.629 246.918 159.665 246.865C161.885 243.659 162.053 239.571 161.973 237.595C160.118 239.827 155.18 245.166 149.989 245.64C147.381 245.875 145.985 245.6 145.316 244.712C144.355 243.436 145.175 241.321 146.537 237.819L146.906 236.864C147.746 234.663 147.88 232.903 147.267 231.774C147.013 231.298 146.607 230.921 146.113 230.703L135.342 248.248C135.315 248.292 135.281 248.332 135.241 248.366C134.96 248.598 128.004 253.926 96.1819 242.096C83.5392 237.395 75.7499 231.327 73.0325 224.049C70.9992 218.612 72.5121 214.263 73.1227 212.869L40.4928 198.468Z" fill="#005188"/>
<path d="M176.956 217.179C176.839 217.179 176.727 217.137 176.64 217.059C176.554 216.982 176.498 216.875 176.486 216.76L173.598 192.357C173.586 192.293 173.588 192.228 173.603 192.165C173.617 192.101 173.645 192.042 173.683 191.99C173.722 191.937 173.771 191.894 173.827 191.861C173.883 191.829 173.945 191.808 174.01 191.801C174.074 191.793 174.14 191.799 174.202 191.818C174.264 191.836 174.322 191.868 174.371 191.91C174.421 191.952 174.461 192.003 174.49 192.062C174.519 192.12 174.535 192.183 174.538 192.248L177.426 216.648C177.44 216.774 177.404 216.9 177.325 216.999C177.246 217.097 177.131 217.161 177.006 217.175L176.956 217.179Z" fill="#005188"/>
<path d="M78.1947 212.063C78.1048 212.064 78.0166 212.039 77.9405 211.991C77.8645 211.943 77.8037 211.874 77.7653 211.793C77.727 211.711 77.7126 211.621 77.724 211.532C77.7354 211.442 77.772 211.358 77.8296 211.289L83.6694 204.209C83.7074 204.157 83.7557 204.112 83.8114 204.079C83.8672 204.046 83.9291 204.025 83.9934 204.017C84.0577 204.008 84.123 204.013 84.1853 204.031C84.2475 204.049 84.3055 204.08 84.3555 204.121C84.4055 204.162 84.4465 204.213 84.476 204.271C84.5055 204.329 84.5229 204.392 84.527 204.457C84.5312 204.521 84.522 204.586 84.5001 204.647C84.4782 204.708 84.444 204.764 84.3996 204.811L78.5598 211.891C78.5154 211.945 78.4596 211.988 78.3965 212.018C78.3334 212.048 78.2645 212.063 78.1947 212.063Z" fill="#005188"/>
<path d="M105.535 90.9169C105.535 90.9169 99.7096 79.0736 97.6552 76.9878C95.6009 74.902 94.0145 72.7008 100.066 68.6593C106.118 64.6178 121.89 53.8237 131.569 53.8929C141.249 53.9622 148.019 60.0727 145.041 64.4772C142.063 68.8817 140.699 70.7388 142.993 71.0242C145.287 71.3095 146.56 73.8696 140.055 77.6362C133.55 81.4028 110.873 97.7514 105.535 90.9169Z" fill="#005188"/>
<path d="M138.435 125.098L134.956 112.679C142.485 111.001 144.741 100.779 142.955 92.8012C141.657 87.0097 138.242 73.8213 138.242 73.8213C130.384 78.4377 109.117 78.9267 109.117 78.9267C109.117 78.9267 111.326 82.4478 110.057 84.1852C108.787 85.9227 109.581 92.5788 109.581 92.5788C109.581 92.5788 106.83 89.9894 103.883 91.9682C102.228 93.0824 104.121 97.8437 105.478 100.5C106.836 103.157 109.753 103.692 109.753 103.692C109.753 103.692 110.233 103.404 111.221 105.755L108.074 122.386C107.437 125.741 105.976 128.886 103.822 131.536C101.668 134.186 98.8893 136.259 95.7354 137.568L134.06 150.159L150.484 135.736C147.664 135.313 145.026 134.084 142.889 132.196C140.751 130.309 139.205 127.844 138.435 125.098Z" fill="white"/>
<path d="M134.048 150.631C133.997 150.631 133.948 150.622 133.901 150.606L95.5735 138.015C95.4817 137.986 95.4012 137.928 95.343 137.851C95.2847 137.774 95.2516 137.681 95.2479 137.584C95.2442 137.488 95.2703 137.393 95.3225 137.311C95.3747 137.23 95.4506 137.167 95.5399 137.13C98.6244 135.855 101.342 133.831 103.447 131.241C105.552 128.651 106.978 125.576 107.595 122.296L110.724 105.805C110.197 104.578 109.87 104.244 109.767 104.164C109.734 104.167 109.701 104.167 109.668 104.164C109.54 104.141 106.504 103.566 105.052 100.723C104.152 98.9561 101.39 93.0785 103.617 91.5823C105.78 90.1281 107.86 90.9129 108.999 91.5928C108.823 89.5679 108.607 85.3606 109.671 83.9064C110.554 82.6956 109.278 80.0831 108.712 79.1787C108.668 79.1078 108.643 79.0266 108.641 78.9432C108.638 78.8598 108.658 78.7772 108.697 78.7038C108.737 78.6304 108.795 78.5687 108.866 78.5249C108.937 78.4812 109.018 78.457 109.102 78.4548C109.312 78.4548 130.335 77.9176 137.999 73.4186C138.062 73.3816 138.133 73.3597 138.206 73.3546C138.279 73.3496 138.352 73.3616 138.42 73.3896C138.488 73.4177 138.548 73.4611 138.596 73.5164C138.644 73.5716 138.679 73.6373 138.698 73.7082C138.731 73.8404 142.128 86.9679 143.413 92.7007C144.672 98.3664 143.866 104.578 141.341 108.55C139.873 110.858 137.917 112.371 135.537 113.026L138.895 124.987C139.641 127.641 141.137 130.024 143.204 131.85C145.27 133.676 147.819 134.867 150.545 135.281C150.634 135.294 150.718 135.332 150.786 135.392C150.855 135.451 150.905 135.528 150.93 135.615C150.956 135.701 150.956 135.793 150.931 135.88C150.906 135.967 150.856 136.044 150.788 136.104L134.364 150.526C134.275 150.598 134.162 150.636 134.048 150.631ZM97.0277 137.497L133.938 149.624L149.424 136.022C146.718 135.429 144.223 134.111 142.207 132.209C140.191 130.307 138.73 127.894 137.98 125.226L134.499 112.799C134.482 112.737 134.477 112.672 134.486 112.608C134.495 112.544 134.516 112.483 134.549 112.428C134.583 112.374 134.627 112.328 134.68 112.292C134.732 112.256 134.791 112.23 134.853 112.218C137.199 111.697 139.113 110.292 140.546 108.038C142.943 104.261 143.706 98.3265 142.494 92.9043C141.369 87.8849 138.618 77.1664 137.938 74.5329C130.516 78.4485 113.783 79.2438 109.91 79.3781C110.522 80.5679 111.519 82.9873 110.441 84.4646C109.488 85.7656 109.836 90.7283 110.05 92.5287C110.062 92.6252 110.043 92.7228 109.997 92.8083C109.951 92.8938 109.879 92.9631 109.793 93.0069C109.706 93.0506 109.608 93.0666 109.512 93.0528C109.416 93.0389 109.326 92.9959 109.255 92.9295C109.154 92.835 106.737 90.6212 104.148 92.3692C103.031 93.1183 104.183 96.9227 105.9 100.293C107.016 102.488 109.305 103.113 109.759 103.216C109.852 103.21 109.947 103.222 110.036 103.251C110.357 103.358 110.875 103.713 111.653 105.579C111.69 105.664 111.699 105.758 111.681 105.849L108.533 122.481C107.924 125.71 106.565 128.75 104.567 131.358C102.569 133.966 99.9863 136.069 97.0277 137.497Z" fill="#005188"/>
<path d="M128.546 114.01C125.556 114.01 122.964 113.355 120.796 112.048C118.296 110.56 116.441 108.192 115.595 105.408C115.573 105.29 115.598 105.167 115.663 105.066C115.729 104.965 115.83 104.892 115.948 104.863C116.065 104.835 116.189 104.851 116.294 104.911C116.399 104.97 116.477 105.067 116.514 105.182C117.32 107.72 119.024 109.877 121.306 111.248C124.702 113.286 129.257 113.611 134.847 112.211C134.969 112.181 135.098 112.2 135.205 112.265C135.312 112.329 135.39 112.434 135.42 112.556C135.45 112.677 135.431 112.806 135.367 112.913C135.302 113.021 135.198 113.098 135.076 113.128C132.944 113.689 130.75 113.985 128.546 114.01Z" fill="#005188"/>
<path d="M55.1606 289.897C55.0406 289.896 54.9255 289.85 54.8384 289.767C54.7514 289.684 54.6988 289.572 54.6913 289.452C54.6839 289.332 54.7221 289.214 54.7983 289.122C54.8744 289.029 54.9829 288.969 55.1018 288.953L185.664 272.304C185.725 272.296 185.788 272.301 185.848 272.317C185.908 272.333 185.964 272.361 186.013 272.399C186.062 272.437 186.103 272.484 186.134 272.538C186.165 272.592 186.185 272.652 186.192 272.713C186.2 272.775 186.196 272.837 186.18 272.897C186.163 272.957 186.135 273.013 186.097 273.062C186.059 273.112 186.012 273.153 185.958 273.183C185.904 273.214 185.845 273.234 185.783 273.242L55.2215 289.893L55.1606 289.897Z" fill="#005188"/>
</g>
<path d="M291.311 48.6416L233.35 39.4614L232.643 43.9257L290.604 53.1058L291.311 48.6416Z" fill="white"/>
<path d="M290.61 53.5679H290.537L232.575 44.3895C232.514 44.3801 232.455 44.3585 232.401 44.3262C232.348 44.2938 232.302 44.2512 232.265 44.2009C232.229 44.1506 232.202 44.0935 232.188 44.033C232.173 43.9724 232.171 43.9096 232.181 43.8481L232.888 39.3828C232.898 39.3214 232.919 39.2626 232.952 39.2096C232.984 39.1567 233.027 39.1107 233.077 39.0742C233.127 39.0378 233.184 39.0116 233.245 38.9972C233.305 38.9828 233.368 38.9805 233.429 38.9904L291.391 48.1687C291.515 48.1884 291.626 48.2564 291.7 48.3579C291.774 48.4594 291.805 48.586 291.786 48.7101L291.078 53.1734C291.059 53.2836 291.002 53.3836 290.916 53.4557C290.831 53.5279 290.722 53.5676 290.61 53.5679ZM233.19 43.5229L290.218 52.546L290.776 49.0165L233.748 39.9934L233.19 43.5229Z" fill="#005188"/>
<path d="M289.802 58.1777L231.841 48.9976L231.134 53.4618L289.095 62.642L289.802 58.1777Z" fill="white"/>
<path d="M289.101 63.101H289.026L231.064 53.9247C231.003 53.9155 230.944 53.8941 230.891 53.8616C230.838 53.8292 230.792 53.7864 230.756 53.7359C230.719 53.6856 230.693 53.6286 230.678 53.5681C230.664 53.5075 230.662 53.4447 230.672 53.3833L231.377 48.9201C231.397 48.7965 231.466 48.686 231.567 48.6123C231.668 48.5385 231.794 48.5074 231.918 48.5256L289.882 57.7018C290.006 57.7221 290.117 57.7908 290.191 57.8928C290.227 57.9426 290.254 57.9993 290.268 58.0595C290.282 58.1197 290.285 58.1822 290.274 58.2432L289.567 62.7086C289.549 62.8187 289.492 62.9186 289.407 62.9905C289.321 63.0624 289.213 63.1015 289.101 63.101ZM231.679 53.056L288.707 62.0791L289.265 58.5517L232.239 49.5286L231.679 53.056Z" fill="#005188"/>
<path d="M33.4653 87.9062H33.3835C33.3222 87.8956 33.2637 87.873 33.2113 87.8397C33.1588 87.8063 33.1134 87.763 33.0777 87.7121C33.0421 87.6612 33.0168 87.6038 33.0034 87.5431C32.9899 87.4825 32.9886 87.4197 32.9995 87.3586C33.0225 87.2201 35.5658 73.3308 48.1582 57.3243C55.5446 47.9361 64.895 39.6558 75.9535 32.7123C89.7609 24.0417 106.284 17.4444 125.056 13.107C125.116 13.0932 125.179 13.0915 125.24 13.1019C125.301 13.1123 125.36 13.1347 125.412 13.1677C125.465 13.2008 125.51 13.2438 125.546 13.2944C125.582 13.345 125.608 13.4022 125.621 13.4627C125.635 13.5232 125.637 13.5858 125.626 13.6469C125.616 13.7081 125.594 13.7666 125.561 13.8191C125.528 13.8716 125.485 13.9171 125.434 13.953C125.383 13.9889 125.326 14.0144 125.266 14.0282C82.9999 23.7899 60.4065 43.2756 48.901 57.9118C36.4555 73.7316 33.9542 87.3879 33.9311 87.5222C33.9102 87.6304 33.8522 87.7279 33.7672 87.7979C33.6822 87.868 33.5755 87.9063 33.4653 87.9062Z" fill="#005188"/>
<path d="M39.179 110.881H39.1454C39.0833 110.877 39.0227 110.861 38.9671 110.833C38.9114 110.805 38.8618 110.767 38.821 110.72C38.7803 110.673 38.7492 110.618 38.7296 110.559C38.71 110.5 38.7023 110.438 38.7068 110.376C38.7068 110.275 39.4706 100.167 43.7891 87.7612C47.7761 76.2977 55.7143 60.4612 70.8584 50.1077C70.9097 50.0706 70.9679 50.044 71.0297 50.0298C71.0914 50.0155 71.1553 50.0137 71.2178 50.0246C71.2802 50.0355 71.3398 50.0587 71.3931 50.093C71.4464 50.1273 71.4923 50.1719 71.528 50.2242C71.5638 50.2765 71.5887 50.3354 71.6013 50.3975C71.6139 50.4596 71.6139 50.5236 71.6014 50.5857C71.5888 50.6478 71.564 50.7068 71.5283 50.7591C71.4925 50.8114 71.4467 50.8561 71.3935 50.8904C42.8092 70.4348 39.6826 110.046 39.6553 110.443C39.6458 110.562 39.5914 110.674 39.5031 110.755C39.4148 110.837 39.299 110.882 39.179 110.881Z" fill="#005188"/>
<path d="M344.318 298.104C344.23 298.104 344.144 298.079 344.069 298.032C343.994 297.985 343.934 297.919 343.895 297.84C343.856 297.76 343.839 297.672 343.848 297.584C343.856 297.496 343.889 297.413 343.943 297.342C344.153 297.065 365.248 269.31 375.047 238.128C375.085 238.008 375.169 237.908 375.28 237.851C375.392 237.793 375.521 237.782 375.641 237.819C375.761 237.857 375.86 237.941 375.918 238.052C375.976 238.164 375.987 238.294 375.95 238.413C366.1 269.757 344.906 297.64 344.684 297.917C344.641 297.974 344.586 298.02 344.522 298.053C344.459 298.085 344.389 298.103 344.318 298.104Z" fill="#005188"/>
<path d="M336.962 322.114C336.841 322.113 336.725 322.067 336.637 321.984C336.546 321.898 336.493 321.779 336.489 321.654C336.485 321.529 336.532 321.407 336.618 321.316C351.109 305.916 365.265 282.037 365.405 281.797C365.437 281.744 365.479 281.697 365.528 281.66C365.578 281.623 365.635 281.595 365.695 281.58C365.755 281.564 365.817 281.561 365.879 281.57C365.94 281.578 365.999 281.599 366.053 281.631C366.106 281.662 366.153 281.704 366.19 281.753C366.228 281.803 366.255 281.86 366.27 281.92C366.286 281.98 366.289 282.042 366.281 282.104C366.272 282.165 366.251 282.224 366.22 282.278C366.079 282.519 351.871 306.487 337.306 321.965C337.262 322.012 337.209 322.049 337.149 322.075C337.09 322.101 337.026 322.114 336.962 322.114Z" fill="#005188"/>
<path d="M138.322 16.6175C137.341 16.6154 136.383 16.3226 135.568 15.7762C134.754 15.2298 134.12 14.4542 133.746 13.5475C133.372 12.6407 133.276 11.6436 133.468 10.6819C133.661 9.7203 134.135 8.83739 134.829 8.14477C135.523 7.45215 136.407 6.98091 137.37 6.79059C138.332 6.60027 139.329 6.69942 140.234 7.0755C141.14 7.45158 141.914 8.08773 142.459 8.90354C143.003 9.71935 143.293 10.6782 143.293 11.659C143.292 12.311 143.163 12.9564 142.912 13.5584C142.662 14.1605 142.296 14.7073 141.834 15.1678C141.373 15.6282 140.825 15.9932 140.222 16.242C139.619 16.4907 138.974 16.6183 138.322 16.6175ZM138.322 7.64476C137.528 7.64476 136.752 7.88018 136.092 8.32127C135.431 8.76236 134.917 9.3893 134.613 10.1228C134.309 10.8563 134.23 11.6634 134.385 12.4421C134.539 13.2208 134.922 13.9361 135.483 14.4975C136.045 15.0589 136.76 15.4412 137.539 15.5961C138.317 15.7509 139.124 15.6715 139.858 15.3676C140.591 15.0638 141.218 14.5493 141.659 13.8892C142.1 13.229 142.336 12.4529 142.336 11.659C142.335 10.5947 141.912 9.57429 141.159 8.82172C140.406 8.06915 139.386 7.64587 138.322 7.64476Z" fill="#005188"/>
<path d="M25.5732 343.479C24.6303 343.479 23.7085 343.2 22.9245 342.676C22.1405 342.152 21.5294 341.407 21.1686 340.536C20.8077 339.665 20.7133 338.707 20.8973 337.782C21.0812 336.857 21.5353 336.007 22.202 335.341C22.8688 334.674 23.7183 334.22 24.6431 334.036C25.5679 333.852 26.5265 333.946 27.3977 334.307C28.2688 334.668 29.0134 335.279 29.5373 336.063C30.0611 336.847 30.3408 337.769 30.3408 338.712C30.3396 339.976 29.837 341.188 28.9431 342.082C28.0493 342.976 26.8373 343.478 25.5732 343.479ZM25.5732 334.891C24.8175 334.891 24.0787 335.115 23.4503 335.535C22.8219 335.955 22.3321 336.551 22.0429 337.25C21.7537 337.948 21.678 338.716 21.8255 339.457C21.9729 340.199 22.3368 340.879 22.8712 341.414C23.4056 341.948 24.0865 342.312 24.8277 342.46C25.569 342.607 26.3373 342.531 27.0355 342.242C27.7337 341.953 28.3305 341.463 28.7504 340.835C29.1703 340.206 29.3944 339.468 29.3944 338.712C29.391 337.7 28.9871 336.731 28.271 336.017C27.5549 335.302 26.5849 334.9 25.5732 334.899V334.891Z" fill="#005188"/>
<path d="M348.53 92.6424H336.962C336.893 92.6429 336.824 92.6281 336.761 92.5991C336.699 92.5702 336.643 92.5278 336.599 92.4749C336.554 92.4219 336.522 92.3599 336.504 92.2931C336.486 92.2263 336.483 92.1564 336.496 92.0884L338.542 80.371C338.557 80.2814 338.598 80.1982 338.66 80.1315C338.722 80.0649 338.802 80.0176 338.89 79.9954C338.978 79.9719 339.07 79.9745 339.156 80.0028C339.242 80.0312 339.318 80.084 339.375 80.1548L348.897 91.8702C348.953 91.9397 348.989 92.0237 348.999 92.1124C349.01 92.2012 348.995 92.2911 348.957 92.3718C348.918 92.4525 348.858 92.5207 348.782 92.5686C348.707 92.6165 348.619 92.642 348.53 92.6424ZM337.524 91.696H347.535L339.295 81.5566L337.524 91.696Z" fill="#005188"/>
</svg>
